<!-- Created with Inkscape (http://www.inkscape.org/) -->
<svg xmlns:rdf="http://www.w3.org/1999/02/22-rdf-syntax-ns#" xmlns="http://www.w3.org/2000/svg" height="108.17405" width="108.12627" version="1.1" xmlns:cc="http://creativecommons.org/ns#" xmlns:dc="http://purl.org/dc/elements/1.1/">
 <metadata>
  <rdf:RDF>
   <cc:Work rdf:about="">
    <dc:format>image/svg+xml</dc:format>
    <dc:type rdf:resource="http://purl.org/dc/dcmitype/StillImage"/>
    <dc:title/>
   </cc:Work>
  </rdf:RDF>
 </metadata>
 <g transform="translate(-308.79402,-329.70373)">
  <g transform="matrix(0.12499756,-7.7987517e-4,-7.7987517e-4,-0.12499756,309.13245,438.21384)" fill-rule="nonzero">
   <path d="m234.359,630.656c50.692,50.684,120.735,82.039,198.114,82.039,77.172,0,147.047-31.211,197.699-81.664l0.203,186.563c-59.301,30.547-126.609,47.797-197.902,47.797-71.328,0-138.996-19.43-198.328-49.996l0.214-184.739" fill="#f1511b"/>
   <path d="M630.375,234.746c-50.684-50.691-120.695-82.043-198.074-82.043-77.172,0-147.051,31.203-197.735,81.664l-0.207-186.5623c59.336-30.5469,126.618-47.8047,197.942-47.8047,71.332,0,138.633,17.2578,197.937,47.8125l0.137,186.9335" fill="#eea00c"/>
   <path d="m234.734,234.504c-50.679,50.684-82.043,120.691-82.043,198.074,0,77.172,31.211,147.047,81.668,197.735l-186.566,0.195c-30.543-59.324-47.793-126.602-47.793-197.93s17.25-138.633,47.8164-197.949l186.9176-0.125" fill="#564ca9"/>
   <path d="m630.273,631.039c50.688-50.676,82.047-120.726,82.047-198.109,0-77.168-31.207-147.051-81.675-197.696l186.574-0.203c30.547,59.305,47.793,126.61,47.793,197.899,0,71.34-17.246,138.648-47.809,197.98l-186.93,0.129" fill="#159281"/>
  </g>
 </g>
</svg>
